<svg width="36" height="33" viewBox="0 0 36 33" fill="none" xmlns="http://www.w3.org/2000/svg">
<path d="M8.71875 25.1875C8.71875 16.7997 15.5184 10 23.9063 10H25.7188V11.8125C25.7188 20.2003 18.9191 27 10.5312 27H8.71875V25.1875Z" stroke="white" stroke-width="1.6"/>
<path d="M10.1759 25.0571C10.9525 23.5039 12.7846 20.4297 14.8779 17.8693C14.7062 16.8216 14.3736 15.6202 13.8188 15.3429C14.239 15.5529 15.059 16.1992 15.3984 17.2502C15.758 16.8346 16.1232 16.4384 16.4902 16.0714C19.2102 13.3514 23.0474 10.9714 24.7474 10.4857C22.8494 11.3957 21.1965 12.6063 19.4405 14.1891C20.833 13.9218 22.8764 13.44 24.0697 13.8378C22.1729 13.8378 19.6509 14.6358 18.2825 15.2696C17.9353 15.6035 17.5815 15.9516 17.2188 16.3143C16.4569 17.0762 15.7105 18.0062 15.0108 18.9857C14.5519 19.6281 14.113 20.2917 13.703 20.9432C15.8247 20.2426 17.8635 20.4641 18.6759 20.6857C16.7205 20.5228 14.4006 21.3735 13.0345 22.0342C12.0147 23.7413 11.2457 25.2171 10.9045 25.7857L10.1759 25.0571Z" fill="white"/>
<mask id="path-3-inside-1_28_598" fill="white">
<path fill-rule="evenodd" clip-rule="evenodd" d="M25.1414 2.5C24.7105 1.01873 23.3532 0 21.8105 0H14.1036C12.5609 0 11.2036 1.01873 10.7727 2.5C10.3418 3.98127 8.98443 5 7.44176 5H4.99999C2.23856 5 -1.52588e-05 7.23858 -1.52588e-05 10V28C-1.52588e-05 30.7614 2.23856 33 4.99998 33H31C33.7614 33 36 30.7614 36 28V10C36 7.23858 33.7614 5 31 5H28.4723C26.9297 5 25.5724 3.98127 25.1414 2.5Z"/>
</mask>
<path d="M14.1036 2H21.8105V-2H14.1036V2ZM4.99999 7H7.44176V3H4.99999V7ZM1.99998 28V10H-2.00002V28H1.99998ZM31 31H4.99998V35H31V31ZM34 10V28H38V10H34ZM28.4723 7H31V3H28.4723V7ZM28.4723 3C27.8191 3 27.2443 2.5686 27.0618 1.94134L23.221 3.05866C23.9004 5.39393 26.0403 7 28.4723 7V3ZM38 10C38 6.13401 34.866 3 31 3V7C32.6568 7 34 8.34315 34 10H38ZM31 35C34.866 35 38 31.866 38 28H34C34 29.6569 32.6568 31 31 31V35ZM-2.00002 28C-2.00002 31.866 1.13399 35 4.99998 35V31C3.34313 31 1.99998 29.6569 1.99998 28H-2.00002ZM4.99999 3C1.13399 3 -2.00002 6.13401 -2.00002 10H1.99998C1.99998 8.34315 3.34313 7 4.99999 7V3ZM8.85228 1.94134C8.6698 2.5686 8.09503 3 7.44176 3V7C9.87384 7 12.0137 5.39393 12.6931 3.05866L8.85228 1.94134ZM21.8105 2C22.4638 2 23.0386 2.4314 23.221 3.05866L27.0618 1.94134C26.3825 -0.39393 24.2426 -2 21.8105 -2V2ZM14.1036 -2C11.6715 -2 9.53163 -0.393929 8.85228 1.94134L12.6931 3.05866C12.8755 2.4314 13.4503 2 14.1036 2V-2Z" fill="white" mask="url(#path-3-inside-1_28_598)"/>
</svg>
