<svg width="20" height="20" viewBox="0 0 20 20" fill="none" xmlns="http://www.w3.org/2000/svg">
<path d="M18.3477 6.00102C18.3751 5.97702 18.4022 5.95227 18.4283 5.92612L19.5169 4.83752C20.161 4.19337 20.161 3.14897 19.5169 2.50482L17.4952 0.483113C16.851 -0.161038 15.8066 -0.161038 15.1625 0.483113L14.0739 1.57172C14.0478 1.59787 14.023 1.62492 13.999 1.65237L18.3477 6.00102Z" fill="black"/>
<path d="M2.91586 17.0843L5.06586 19.2343L2.5329 19.6172L0 20.0001L0.382901 17.4671L0.765801 14.9342L2.91586 17.0843Z" fill="black"/>
<path d="M14.6572 3.47701L14.0351 2.85496L13.413 2.23291L1.28294 14.3629L5.63735 18.7173L17.7674 6.58727L14.6572 3.47701Z" fill="black"/>
</svg>
