<svg width="30" height="30" viewBox="0 0 30 30" fill="none" xmlns="http://www.w3.org/2000/svg">
<circle cx="15" cy="15" r="15" fill="#FD607F"/>
<path d="M13.1971 7.12H16.0971L15.6771 18.54H13.5371L13.1971 7.12ZM14.6371 20.04C15.1304 20.04 15.5371 20.2067 15.8571 20.54C16.1904 20.86 16.3571 21.24 16.3571 21.68C16.3571 22.12 16.1904 22.5 15.8571 22.82C15.5371 23.14 15.1304 23.3 14.6371 23.3C14.1438 23.3 13.7304 23.14 13.3971 22.82C13.0771 22.5 12.9171 22.12 12.9171 21.68C12.9171 21.24 13.0771 20.86 13.3971 20.54C13.7304 20.2067 14.1438 20.04 14.6371 20.04Z" fill="white"/>
</svg>
