<svg width="35" height="35" viewBox="0 0 35 35" fill="none" xmlns="http://www.w3.org/2000/svg">
<path d="M0 30C0 13.4315 13.4315 0 30 0H35V5C35 21.5685 21.5685 35 5 35H0V30Z" fill="#FD607F"/>
<path d="M2.66666 31.3334C4.26555 28.1356 8.03739 21.8062 12.3472 16.5348C11.9937 14.3779 11.3088 11.9044 10.1667 11.3334C11.0317 11.7659 12.7199 13.0964 13.4187 15.2602C14.1592 14.4046 14.9111 13.5889 15.6667 12.8334C21.2667 7.23337 29.1667 2.33337 32.6667 1.33337C27.1667 3.97033 22.6667 7.83337 17.1667 13.3334C15.598 14.902 14.0613 16.8168 12.6207 18.8334C11.6759 20.1559 10.7724 21.5222 9.92831 22.8634C14.2965 21.421 18.494 21.8772 20.1667 22.3334C16.1408 21.9979 11.3646 23.7493 8.55201 25.1096C6.45243 28.6242 4.86909 31.6627 4.16666 32.8334L2.66666 31.3334Z" fill="#FFB3C2"/>
<path d="M19.7856 18.16C20.6016 18.272 21.2816 18.608 21.8256 19.168C22.3856 19.728 22.6656 20.432 22.6656 21.28C22.6656 22.096 22.4176 22.792 21.9216 23.368C21.4256 23.944 20.7536 24.384 19.9056 24.688C19.0736 24.976 18.1616 25.12 17.1696 25.12C15.4256 25.12 14.1136 24.816 13.2336 24.208C12.3696 23.6 11.9376 22.84 11.9376 21.928C11.9376 21.4 12.0656 20.992 12.3216 20.704C12.5776 20.4 12.9216 20.248 13.3536 20.248C13.7216 20.248 13.9936 20.344 14.1696 20.536C14.3616 20.712 14.5216 21.024 14.6496 21.472C14.7616 21.904 14.9936 22.232 15.3456 22.456C15.6976 22.68 16.2416 22.792 16.9776 22.792C17.6816 22.792 18.2576 22.664 18.7056 22.408C19.1696 22.136 19.4016 21.728 19.4016 21.184C19.4016 20.624 19.1856 20.216 18.7536 19.96C18.3216 19.688 17.6496 19.536 16.7376 19.504C16.4016 19.488 16.1456 19.376 15.9696 19.168C15.8096 18.944 15.7296 18.68 15.7296 18.376C15.7296 17.992 15.7936 17.72 15.9216 17.56C16.0656 17.384 16.3056 17.264 16.6416 17.2C17.6976 17.04 18.4576 16.736 18.9216 16.288C19.4016 15.824 19.6416 15.272 19.6416 14.632C19.6416 13.752 19.0336 13.312 17.8176 13.312C16.4736 13.312 15.6816 13.84 15.4416 14.896C15.3296 15.328 15.1616 15.64 14.9376 15.832C14.7296 16.008 14.4336 16.096 14.0496 16.096C13.6176 16.096 13.2816 15.976 13.0416 15.736C12.8176 15.48 12.7056 15.144 12.7056 14.728C12.7056 14.088 12.9296 13.48 13.3776 12.904C13.8256 12.328 14.4576 11.864 15.2736 11.512C16.1056 11.16 17.0736 10.984 18.1776 10.984C19.7136 10.984 20.8896 11.28 21.7056 11.872C22.5216 12.464 22.9296 13.344 22.9296 14.512C22.9296 15.28 22.6336 16 22.0416 16.672C21.4656 17.328 20.7136 17.824 19.7856 18.16Z" fill="white"/>
</svg>
