<svg width="35" height="35" viewBox="0 0 35 35" fill="none" xmlns="http://www.w3.org/2000/svg">
<path d="M0 30C0 13.4315 13.4315 0 30 0H35V5C35 21.5685 21.5685 35 5 35H0V30Z" fill="#11AD6C"/>
<path d="M3 31C4.59888 27.8022 8.37072 21.4729 12.6806 16.2015C12.327 14.0445 11.6421 11.5711 10.5 11C11.3651 11.4325 13.0533 12.763 13.7521 14.9268C14.4925 14.0712 15.2444 13.2556 16 12.5C21.6 6.9 29.5 2 33 1C27.5 3.63696 23 7.5 17.5 13C15.9313 14.5687 14.3947 16.4834 12.9541 18.5C12.0093 19.8225 11.1058 21.1888 10.2616 22.53C14.6298 21.0877 18.8274 21.5438 20.5 22C16.4741 21.6645 11.6979 23.4159 8.88534 24.7763C6.78577 28.2908 5.20243 31.3293 4.5 32.5L3 31Z" fill="#066A40"/>
</svg>
