<svg width="25" height="25" viewBox="0 0 25 25" fill="none" xmlns="http://www.w3.org/2000/svg">
<path d="M0 21.0938C0 9.44399 9.44399 0 21.0938 0H24.6094V3.51563C24.6094 15.1654 15.1654 24.6094 3.51562 24.6094H0V21.0938Z" fill="#11AD6C"/>
<path d="M1.64062 21.9727C2.76484 19.7242 5.41691 15.2739 8.44727 11.5674C8.1987 10.0508 7.71713 8.31169 6.91406 7.91016C7.5223 8.21428 8.70932 9.14979 9.20067 10.6712C9.72129 10.0696 10.25 9.4961 10.7812 8.96484C14.7188 5.02734 20.2734 1.58203 22.7344 0.878906C18.8672 2.73302 15.7031 5.44922 11.8359 9.31641C10.733 10.4194 9.6525 11.7657 8.63957 13.1836C7.97526 14.1135 7.34 15.0742 6.74647 16.0172C9.81786 15.003 12.7692 15.3238 13.9453 15.6445C11.1146 15.4086 7.75633 16.6401 5.77876 17.5966C4.3025 20.0678 3.18921 22.2042 2.69531 23.0273L1.64062 21.9727Z" fill="#066A40"/>
</svg>
