<svg width="35" height="35" viewBox="0 0 35 35" fill="none" xmlns="http://www.w3.org/2000/svg">
<path d="M0 30C0 13.4315 13.4315 0 30 0H35V5C35 21.5685 21.5685 35 5 35H0V30Z" fill="#FD607F"/>
<path d="M3 31C4.59888 27.8022 8.37072 21.4729 12.6806 16.2015C12.327 14.0445 11.6421 11.5711 10.5 11C11.3651 11.4325 13.0533 12.763 13.7521 14.9268C14.4925 14.0712 15.2444 13.2556 16 12.5C21.6 6.9 29.5 2 33 1C27.5 3.63696 23 7.5 17.5 13C15.9313 14.5687 14.3947 16.4834 12.9541 18.5C12.0093 19.8225 11.1058 21.1888 10.2616 22.53C14.6298 21.0877 18.8274 21.5438 20.5 22C16.4741 21.6645 11.6979 23.4159 8.88534 24.7763C6.78577 28.2908 5.20243 31.3293 4.5 32.5L3 31Z" fill="#FFB3C2"/>
<path d="M16.6923 24.12C16.2923 24.12 15.9403 24 15.6363 23.76C15.3323 23.52 15.1803 23.144 15.1803 22.632L15.2043 22.368C15.3803 20.72 15.5883 19.008 15.8283 17.232C16.0843 15.44 16.3003 14.064 16.4763 13.104L14.6043 13.632L14.3163 13.68C14.0123 13.68 13.7723 13.56 13.5963 13.32C13.4203 13.08 13.3323 12.808 13.3323 12.504L13.3563 12.288C13.3883 11.984 13.4843 11.736 13.6443 11.544C13.8043 11.352 14.1083 11.16 14.5563 10.968C15.0203 10.776 15.7083 10.568 16.6203 10.344L17.6283 10.104C17.9963 10.024 18.3003 9.984 18.5403 9.984C19.0043 9.984 19.3483 10.104 19.5723 10.344C19.8123 10.584 19.9323 10.92 19.9323 11.352C19.9323 11.544 19.9083 11.752 19.8603 11.976C19.6043 13.224 19.1163 16.776 18.3963 22.632C18.2683 23.624 17.7003 24.12 16.6923 24.12Z" fill="white"/>
</svg>
