<svg width="35" height="35" viewBox="0 0 35 35" fill="none" xmlns="http://www.w3.org/2000/svg">
<path d="M0 30C0 13.4315 13.4315 0 30 0H35V5C35 21.5685 21.5685 35 5 35H0V30Z" fill="#FD607F"/>
<path d="M2.33333 31.25C3.93221 28.0522 7.70406 21.7229 12.0139 16.4515C11.6604 14.2945 10.9755 11.8211 9.83333 11.25C10.6984 11.6825 12.3866 13.013 13.0854 15.1768C13.8258 14.3212 14.5778 13.5056 15.3333 12.75C20.9333 7.15 28.8333 2.25 32.3333 1.25C26.8333 3.88696 22.3333 7.75 16.8333 13.25C15.2647 14.8187 13.728 16.7334 12.2874 18.75C11.3426 20.0725 10.4391 21.4388 9.59498 22.78C13.9632 21.3377 18.1607 21.7938 19.8333 22.25C15.8075 21.9145 11.0312 23.6659 8.21868 25.0263C6.1191 28.5408 4.53576 31.5793 3.83333 32.75L2.33333 31.25Z" fill="#FFB3C2"/>
<path d="M22.2092 22.312C22.5452 22.312 22.8012 22.424 22.9772 22.648C23.1532 22.872 23.2412 23.152 23.2412 23.488C23.2412 23.904 23.1052 24.28 22.8332 24.616C22.5772 24.936 22.2252 25.096 21.7772 25.096C21.0092 25.096 19.8652 25.04 18.3452 24.928C18.0412 24.912 17.4812 24.88 16.6652 24.832C15.8492 24.784 15.2092 24.76 14.7452 24.76C14.5372 24.76 14.2332 24.832 13.8332 24.976C13.7532 24.992 13.5932 25.032 13.3532 25.096C13.1292 25.16 12.9372 25.192 12.7772 25.192C12.5212 25.192 12.3052 25.08 12.1292 24.856C11.9692 24.616 11.8892 24.264 11.8892 23.8C11.8892 23.288 12.0092 22.896 12.2492 22.624C12.4892 22.336 12.8652 22.08 13.3772 21.856C14.4652 21.376 15.4892 20.768 16.4492 20.032C17.4252 19.28 18.2012 18.472 18.7772 17.608C19.3692 16.744 19.6652 15.92 19.6652 15.136C19.6652 14.512 19.5212 14.056 19.2332 13.768C18.9612 13.464 18.5212 13.312 17.9132 13.312C17.2092 13.312 16.6412 13.504 16.2092 13.888C15.7932 14.272 15.5852 14.808 15.5852 15.496C15.5852 16.44 15.1132 16.912 14.1692 16.912C13.7212 16.912 13.3692 16.784 13.1132 16.528C12.8732 16.272 12.7532 15.904 12.7532 15.424C12.7532 14.624 12.9612 13.888 13.3772 13.216C13.7932 12.544 14.4172 12.008 15.2492 11.608C16.0812 11.192 17.0972 10.984 18.2972 10.984C19.7372 10.984 20.8652 11.344 21.6812 12.064C22.4972 12.784 22.9052 13.784 22.9052 15.064C22.9052 16.28 22.3692 17.552 21.2972 18.88C20.2412 20.208 18.7132 21.384 16.7132 22.408L22.2092 22.312Z" fill="white"/>
</svg>
