<svg width="92" height="42" viewBox="0 0 92 42" fill="none" xmlns="http://www.w3.org/2000/svg">
<path d="M90.8084 2V1.30548H90.1139H88.8117C84.1129 1.30548 80.3038 5.11458 80.3038 9.81335V11.1156V11.8101H80.9983H82.3006C86.9993 11.8101 90.8084 8.00099 90.8084 3.30222V2Z" fill="white" stroke="white" stroke-width="1.38904"/>
<path d="M36.6359 2V1.30548H35.9414H34.6392C29.9404 1.30548 26.1313 5.11458 26.1313 9.81335V11.1156V11.8101H26.8258H28.128C32.8268 11.8101 36.6359 8.00099 36.6359 3.30222V2Z" fill="white" stroke="white" stroke-width="1.38904"/>
<path d="M88.573 40.8063C88.327 40.7918 88.0376 40.7701 87.7048 40.7412C87.4154 40.7267 87.0754 40.7122 86.6847 40.6978C86.2941 40.6833 85.8455 40.6761 85.3391 40.6761C84.3986 40.6761 83.3134 40.7195 82.0835 40.8063C80.8537 40.8786 79.5225 41.0233 78.09 41.2403C78.365 40.6905 78.5965 40.0032 78.7846 39.1785C78.9727 38.3393 79.1246 37.4494 79.2403 36.5089C79.3706 35.554 79.4646 34.5918 79.5225 33.6223C79.5948 32.6529 79.6455 31.763 79.6744 30.9528C79.7034 30.1425 79.7178 29.4552 79.7178 28.8909C79.7323 28.3266 79.7395 27.9721 79.7395 27.8274C79.7106 25.9464 79.6455 24.1884 79.5442 22.5534C79.5008 21.8589 79.4429 21.1572 79.3706 20.4482C79.3127 19.7392 79.2403 19.0736 79.1535 18.4514C79.0667 17.8148 78.9654 17.2505 78.8497 16.7585C78.7484 16.2521 78.6254 15.8542 78.4807 15.5648C79.6527 15.7674 80.7379 15.9048 81.7363 15.9772C82.7347 16.0495 83.639 16.0857 84.4492 16.0857C84.9701 16.0857 85.4331 16.0785 85.8383 16.064C86.2579 16.0351 86.6124 16.0061 86.9018 15.9772C87.249 15.9483 87.5529 15.9121 87.8133 15.8687C87.5529 17.1709 87.3358 18.7408 87.1622 20.5784C87.0031 22.416 86.9235 24.3838 86.9235 26.4818C86.9235 27.6827 86.9524 28.8982 87.0103 30.128C87.0682 31.3579 87.1622 32.5878 87.2924 33.8177C87.4227 35.0331 87.5891 36.234 87.7916 37.4205C88.0087 38.5925 88.2691 39.7211 88.573 40.8063Z" fill="white"/>
<path d="M77.3087 41.5225C75.6737 41.3923 74.2557 41.3272 73.0548 41.3272C72.013 41.3272 71.1304 41.3561 70.4069 41.414C69.6979 41.4863 69.1192 41.5587 68.6706 41.631C68.1497 41.7178 67.7301 41.8119 67.4118 41.9132C67.5276 41.1752 67.6144 40.4952 67.6723 39.873C67.7301 39.2508 67.7591 38.5853 67.7591 37.8763C67.7591 36.603 67.7084 35.5467 67.6071 34.7075C67.5059 33.8538 67.3612 33.1376 67.1731 32.5589C66.985 31.9801 66.7607 31.5098 66.5002 31.1481C66.2398 30.7864 65.9504 30.4608 65.6321 30.1714C65.6032 30.6923 65.5815 31.2132 65.567 31.7341C65.5525 32.2405 65.5453 32.7614 65.5453 33.2968C65.5453 34.382 65.6032 35.5612 65.7189 36.8345C65.8347 38.0933 66.0734 39.5619 66.4351 41.2404C66.0011 41.2114 65.5091 41.1752 64.9593 41.1318C64.4963 41.1029 63.9392 41.074 63.2881 41.045C62.637 41.0306 61.9208 41.0233 61.1394 41.0233C60.3581 41.0233 59.5261 41.0378 58.6435 41.0667C57.7753 41.0957 56.871 41.1535 55.9305 41.2404C56.2199 40.7918 56.4731 40.1986 56.6902 39.4606C56.9217 38.7227 57.117 37.898 57.2762 36.9864C57.4353 36.0604 57.5655 35.0765 57.6668 34.0347C57.7826 32.9929 57.8694 31.9439 57.9273 30.8877C57.9996 29.817 58.0503 28.7679 58.0792 27.7406C58.1081 26.7133 58.1226 25.7511 58.1226 24.854C58.1226 23.6531 58.1009 22.4232 58.0575 21.1644C58.0141 19.9056 57.9562 18.6757 57.8839 17.4748C57.8115 16.2738 57.7247 15.1308 57.6234 14.0456C57.5221 12.9604 57.4209 11.9837 57.3196 11.1156C57.2183 10.2329 57.1098 9.49501 56.994 8.90178C56.8927 8.30854 56.7914 7.90341 56.6902 7.68637C57.6162 7.77318 58.5784 7.81659 59.5768 7.81659C60.8356 7.81659 62.0799 7.75871 63.3098 7.64296C64.5541 7.51274 65.7406 7.33911 66.8692 7.12207C66.6956 7.62849 66.5364 8.28684 66.3917 9.09711C66.247 9.89292 66.1168 10.7828 66.0011 11.7667C65.8998 12.7361 65.8057 13.7707 65.7189 14.8703C65.6466 15.9555 65.5815 17.0479 65.5236 18.1476C65.4657 19.2328 65.4223 20.289 65.3934 21.3163C65.3789 22.3436 65.3717 23.2841 65.3717 24.1378C65.3717 24.7166 65.3789 25.2375 65.3934 25.7005C65.4078 26.1635 65.4295 26.5614 65.4585 26.8942C66.4568 25.6209 67.2309 24.391 67.7808 23.2045C68.3306 22.0036 68.6055 20.8171 68.6055 19.6451C68.6055 18.531 68.3089 17.4024 67.7157 16.2593C68.2655 16.3172 68.8298 16.3606 69.4086 16.3896C69.9873 16.404 70.5516 16.4113 71.1014 16.4113C72.1432 16.4113 73.1778 16.3751 74.2051 16.3028C75.2324 16.2159 76.2669 16.0712 77.3087 15.8687C76.9036 16.4764 76.5636 17.1564 76.2886 17.9088C76.0282 18.6468 75.8184 19.363 75.6592 20.0575C75.4711 20.8533 75.312 21.6636 75.1817 22.4883C75.0515 23.2841 74.8345 24.051 74.5306 24.7889C74.4004 25.1072 74.2413 25.4328 74.0532 25.7656C73.8795 26.0839 73.6625 26.4022 73.402 26.7206C73.1561 27.0244 72.8739 27.3138 72.5556 27.5887C72.2373 27.8491 71.8828 28.0734 71.4921 28.2615C72.3313 28.5943 72.968 29.0139 73.402 29.5203C73.8506 30.0268 74.1834 30.5983 74.4004 31.2349C74.6174 31.8571 74.7694 32.5444 74.8562 33.2968C74.943 34.0347 75.0515 34.816 75.1817 35.6408C75.312 36.3208 75.4784 37.0081 75.6809 37.7026C75.8546 38.2959 76.0716 38.9398 76.332 39.6343C76.607 40.3143 76.9325 40.9437 77.3087 41.5225Z" fill="white"/>
<path d="M54.9973 22.4883C54.9973 23.096 54.8887 23.7037 54.6717 24.3114C54.4691 24.9191 54.1725 25.469 53.7818 25.9609C53.3912 26.4384 52.9065 26.8363 52.3277 27.1546C51.7634 27.4585 51.1268 27.6104 50.4178 27.6104C49.7811 27.6104 49.2385 27.5019 48.79 27.2849C48.3414 27.0678 47.9725 26.7857 47.6831 26.4384C47.3937 26.0911 47.1767 25.6932 47.032 25.2447C46.9018 24.7817 46.8367 24.3114 46.8367 23.834C46.8367 22.8211 47.0826 21.9457 47.5746 21.2078C47.6469 21.4538 47.7482 21.6419 47.8784 21.7721C48.0231 21.8879 48.1533 21.9747 48.2691 22.0325C48.4138 22.0904 48.5585 22.1266 48.7032 22.1411C49.1228 22.1411 49.3905 22.047 49.5062 21.8589C49.622 21.6708 49.6943 21.4538 49.7232 21.2078C49.7232 20.9618 49.6292 20.7231 49.4411 20.4916C49.253 20.2601 48.9274 20.1443 48.4644 20.1443C48.3342 20.1443 48.1461 20.166 47.9001 20.2094C47.6686 20.2384 47.4009 20.3252 47.0971 20.4699C46.8077 20.6146 46.5111 20.8316 46.2072 21.121C45.9034 21.3959 45.6212 21.7866 45.3608 22.293C45.1148 22.7849 44.9123 23.4071 44.7531 24.1595C44.5939 24.8974 44.5144 25.7945 44.5144 26.8508C44.5144 27.936 44.6735 28.8186 44.9918 29.4986C45.3102 30.1642 45.6864 30.6851 46.1204 31.0613C46.569 31.423 47.0392 31.669 47.5312 31.7992C48.0231 31.9295 48.4427 31.9946 48.79 31.9946C49.0938 31.9946 49.4773 31.9439 49.9403 31.8426C50.4033 31.7269 50.8591 31.5243 51.3076 31.2349C51.7706 30.9456 52.1902 30.5477 52.5664 30.0412C52.9426 29.5203 53.1958 28.8548 53.3261 28.0445C53.7167 28.6233 54.0278 29.3178 54.2593 30.128C54.4908 30.9238 54.6066 31.7558 54.6066 32.624C54.6066 33.8104 54.3823 34.968 53.9338 36.0966C53.4997 37.2252 52.8775 38.2308 52.0673 39.1134C51.2715 39.9815 50.3093 40.6761 49.1807 41.197C48.0521 41.7323 46.8077 42 45.4476 42C44.4348 42 43.4943 41.8336 42.6261 41.5008C41.758 41.1825 40.9694 40.7339 40.2604 40.1552C39.5659 39.5764 38.9437 38.8964 38.3939 38.115C37.8441 37.3192 37.3811 36.4655 37.0049 35.554C36.6431 34.628 36.3682 33.6585 36.1801 32.6457C35.992 31.6328 35.898 30.62 35.898 29.6072C35.898 28.4786 36.021 27.3283 36.2669 26.1563C36.5129 24.9843 36.8602 23.8557 37.3087 22.7705C37.7717 21.6853 38.336 20.6652 39.0016 19.7102C39.6672 18.7553 40.4196 17.9305 41.2588 17.236C42.098 16.527 43.024 15.97 44.0369 15.5648C45.0497 15.1452 46.1277 14.9354 47.2707 14.9354C48.298 14.9354 49.2024 15.0584 49.9837 15.3044C50.765 15.5504 51.4451 15.8759 52.0238 16.2811C52.6026 16.6862 53.0801 17.1564 53.4563 17.6918C53.8325 18.2127 54.1363 18.7553 54.3679 19.3196C54.5994 19.8694 54.7585 20.4192 54.8453 20.9691C54.9466 21.5189 54.9973 22.0253 54.9973 22.4883Z" fill="white"/>
<path d="M34.6174 40.8063C34.3715 40.7918 34.0821 40.7701 33.7493 40.7412C33.4599 40.7267 33.1199 40.7122 32.7292 40.6978C32.3386 40.6833 31.89 40.6761 31.3836 40.6761C30.4431 40.6761 29.3579 40.7195 28.128 40.8063C26.8981 40.8786 25.567 41.0233 24.1345 41.2403C24.4095 40.6905 24.641 40.0032 24.8291 39.1785C25.0172 38.3393 25.1691 37.4494 25.2848 36.5089C25.4151 35.554 25.5091 34.5918 25.567 33.6223C25.6393 32.6529 25.69 31.763 25.7189 30.9528C25.7478 30.1425 25.7623 29.4552 25.7623 28.8909C25.7768 28.3266 25.784 27.9721 25.784 27.8274C25.7551 25.9464 25.69 24.1884 25.5887 22.5534C25.5453 21.8589 25.4874 21.1572 25.4151 20.4482C25.3572 19.7392 25.2848 19.0736 25.198 18.4514C25.1112 17.8148 25.0099 17.2505 24.8942 16.7585C24.7929 16.2521 24.6699 15.8542 24.5252 15.5648C25.6972 15.7674 26.7824 15.9048 27.7808 15.9772C28.7791 16.0495 29.6835 16.0857 30.4937 16.0857C31.0146 16.0857 31.4776 16.0785 31.8828 16.064C32.3024 16.0351 32.6569 16.0061 32.9463 15.9772C33.2935 15.9483 33.5974 15.9121 33.8578 15.8687C33.5974 17.1709 33.3803 18.7408 33.2067 20.5784C33.0475 22.416 32.968 24.3838 32.968 26.4818C32.968 27.6827 32.9969 28.8982 33.0548 30.128C33.1127 31.3579 33.2067 32.5878 33.3369 33.8177C33.4671 35.0331 33.6335 36.234 33.8361 37.4205C34.0531 38.5925 34.3136 39.7211 34.6174 40.8063Z" fill="white"/>
<path d="M22.9408 21.924C22.9408 23.4577 22.6949 24.8395 22.2029 26.0694C21.7254 27.2848 21.0888 28.3266 20.293 29.1948C19.4972 30.0484 18.5856 30.7068 17.5583 31.1698C16.531 31.6328 15.4675 31.8643 14.3679 31.8643C13.7602 31.8643 13.1597 31.7992 12.5664 31.669C11.9732 31.5243 11.3872 31.2928 10.8084 30.9745C10.9387 32.0452 11.1485 33.1448 11.4379 34.2734C11.6838 35.2429 12.0311 36.3281 12.4796 37.529C12.9426 38.7155 13.5503 39.8802 14.3027 41.0233C12.8269 40.8641 11.4957 40.7556 10.3093 40.6977C9.13725 40.6254 8.07377 40.5892 7.11881 40.5892C5.83105 40.5892 4.74586 40.6326 3.86324 40.7195C2.99509 40.8063 2.2861 40.9076 1.73628 41.0233C1.09963 41.1535 0.593213 41.291 0.217015 41.4357C0.578744 40.3216 0.889831 39.1061 1.15028 37.7894C1.41072 36.4728 1.62776 35.0982 1.80139 33.6657C1.97502 32.2333 2.10524 30.7719 2.19206 29.2816C2.27887 27.7768 2.32228 26.2865 2.32228 24.8106C2.32228 23.2045 2.27164 21.6346 2.17035 20.1009C2.06907 18.5527 1.91714 17.1058 1.71457 15.7601C1.52647 14.4 1.28773 13.1629 0.998349 12.0488C0.708966 10.9347 0.376175 10.0014 -2.28882e-05 9.24902C0.694497 9.46606 1.41796 9.62522 2.17035 9.72651C2.93722 9.81332 3.71132 9.85673 4.49265 9.85673C5.20164 9.85673 5.91063 9.82779 6.61962 9.76991C7.34308 9.69757 8.05207 9.62522 8.74659 9.55288C9.44111 9.48053 10.1139 9.41542 10.765 9.35754C11.4161 9.2852 12.0239 9.24902 12.5881 9.24902C13.1959 9.24902 13.8687 9.3286 14.6066 9.48776C15.359 9.64693 16.1186 9.92184 16.8855 10.3125C17.6524 10.6887 18.3975 11.1951 19.121 11.8318C19.8444 12.4684 20.4883 13.257 21.0526 14.1975C21.6169 15.138 22.0655 16.2449 22.3982 17.5182C22.7455 18.7914 22.9264 20.2601 22.9408 21.924ZM10.5697 25.4617C10.9314 25.1145 11.3438 24.6949 11.8068 24.2029C12.2843 23.6965 12.7328 23.1539 13.1524 22.5751C13.5721 21.9819 13.9193 21.3742 14.1942 20.752C14.4836 20.1298 14.6283 19.5366 14.6283 18.9723C14.6283 18.3212 14.4402 17.8075 14.064 17.4313C13.7023 17.0407 13.2971 16.8453 12.8486 16.8453C12.4435 16.8453 12.1034 16.9828 11.8285 17.2577C11.5681 17.5326 11.351 17.8943 11.1774 18.3429C11.0038 18.777 10.8736 19.2689 10.7867 19.8187C10.6999 20.3541 10.6348 20.8895 10.5914 21.4248C10.548 21.9457 10.5263 22.4377 10.5263 22.9007C10.5263 23.3492 10.5263 23.7037 10.5263 23.9642C10.5263 24.2101 10.5263 24.4561 10.5263 24.7021C10.5263 24.9481 10.5408 25.2013 10.5697 25.4617Z" fill="white"/>
</svg>
