<svg width="30" height="30" viewBox="0 0 30 30" fill="none" xmlns="http://www.w3.org/2000/svg">
<path d="M0 25.7143C0 11.5127 11.5127 0 25.7143 0H30V4.28571C30 18.4873 18.4873 30 4.28571 30H0V25.7143Z" fill="#11AD6C"/>
<path d="M2.57143 26.5714C3.9419 23.8305 7.17491 18.4053 10.8691 13.8869C10.566 12.0381 9.97898 9.91803 9 9.42854C9.74148 9.79928 11.1885 10.9397 11.7875 12.7944C12.4221 12.061 13.0667 11.3619 13.7143 10.7143C18.5143 5.91426 25.2857 1.71426 28.2857 0.857117C23.5714 3.11736 19.7143 6.42855 15 11.1428C13.6554 12.4874 12.3383 14.1286 11.1035 15.8571C10.2937 16.9907 9.51923 18.1618 8.7957 19.3114C12.5399 18.0751 16.1377 18.4661 17.5714 18.8571C14.1207 18.5696 10.0268 20.0708 7.61601 21.2368C5.81638 24.2493 4.45923 26.8536 3.85714 27.8571L2.57143 26.5714Z" fill="#066A40"/>
</svg>
