<svg width="29" height="29" viewBox="0 0 29 29" fill="none" xmlns="http://www.w3.org/2000/svg">
<path d="M28.5938 28.5938C28.455 28.7325 28.2713 28.8038 28.0875 28.8038C27.9225 28.8038 27.7566 28.7466 27.6216 28.6313L17.2303 19.7204L19.7231 17.2275L28.6303 27.6216C28.8741 27.9057 28.8581 28.3294 28.5938 28.5938ZM22.7747 11.5247L21.9506 10.7007C21.5841 10.3341 21.105 10.1513 20.625 10.1513C20.145 10.1513 19.665 10.3341 19.2994 10.7007L19.1719 10.8282L10.9153 4.07255C11.5875 3.33661 11.5734 2.19849 10.8619 1.48692L10.0378 0.662861C9.67125 0.296299 9.07782 0.296299 8.71219 0.662861L0.662816 8.71224C0.296253 9.0788 0.296253 9.67224 0.662816 10.0379L1.48688 10.8619C1.85157 11.2266 2.32782 11.4075 2.805 11.4075C3.25969 11.4075 3.71438 11.2425 4.0725 10.9154L10.8281 19.1719L10.7006 19.2994C9.96844 20.0316 9.96844 21.2185 10.7006 21.9507L11.5247 22.7747C11.8913 23.1413 12.4847 23.1413 12.8503 22.7747L22.7747 12.8504C23.1403 12.4847 23.1403 11.8904 22.7747 11.5247Z" fill="#FD607F"/>
</svg>
